HIERARCHY
ROOT Hips
{
  OFFSET -35.2597 29.1586 114.425
  CHANNELS 6 Xposition Yposition Zposition Zrotation Xrotation Yrotation
  JOINT LeftUpLeg
  {
    OFFSET 8.64259 1.95398 -2.38835
    CHANNELS 3 Zrotation Xrotation Yrotation
    JOINT LeftLeg
    {
      OFFSET 43.7702 0 0
      CHANNELS 3 Zrotation Xrotation Yrotation
      JOINT LeftFoot
      {
        OFFSET 40.6238 0 0
        CHANNELS 3 Zrotation Xrotation Yrotation
        JOINT LeftToeBase
        {
          OFFSET 12.7242 0 0
          CHANNELS 3 Zrotation Xrotation Yrotation
          End Site
          {
            OFFSET 0 0 0
          }
        }
      }
    }
  }
  JOINT RightUpLeg
  {
    OFFSET -8.2249 1.95398 -2.59336
    CHANNELS 3 Zrotation Xrotation Yrotation
    JOINT RightLeg
    {
      OFFSET 43.5653 0 0
      CHANNELS 3 Zrotation Xrotation Yrotation
      JOINT RightFoot
      {
        OFFSET 40.6238 0 0
        CHANNELS 3 Zrotation Xrotation Yrotation
        JOINT RightToeBase
        {
          OFFSET 12.7242 0 0
          CHANNELS 3 Zrotation Xrotation Yrotation
          End Site
          {
            OFFSET 0 0 0
          }
        }
      }
    }
  }
  JOINT Spine
  {
    OFFSET 0.165834 0.87714 6.61349
    CHANNELS 3 Zrotation Xrotation Yrotation
    JOINT Spine1
    {
      OFFSET 7.38963 1.71661e-005 0
      CHANNELS 3 Zrotation Xrotation Yrotation
      JOINT Spine2
      {
        OFFSET 11.9445 1.14441e-005 0
        CHANNELS 3 Zrotation Xrotation Yrotation
        JOINT Spine3
        {
          OFFSET 14.7254 4.19617e-005 0
          CHANNELS 3 Zrotation Xrotation Yrotation
          JOINT Spine4
          {
            OFFSET 10.9679 0 0
            CHANNELS 3 Zrotation Xrotation Yrotation
            JOINT RightShoulder
            {
              OFFSET 2.46616 -1.6653 3.69651
              CHANNELS 3 Zrotation Xrotation Yrotation
              JOINT RightArm
              {
                OFFSET 13.0012 0 0
                CHANNELS 3 Zrotation Xrotation Yrotation
                JOINT RightForeArm
                {
                  OFFSET 28.7848 1.62311e-005 0
                  CHANNELS 3 Zrotation Xrotation Yrotation
                  JOINT RightHand
                  {
                    OFFSET 26.5688 1.62095e-005 0
                    CHANNELS 3 Zrotation Xrotation Yrotation
                    End Site
                    {
                      OFFSET 0 0 0
                    }
                  }
                }
              }
            }
            JOINT LeftShoulder
            {
              OFFSET 2.38034 -1.29275 -3.7523
              CHANNELS 3 Zrotation Xrotation Yrotation
              JOINT LeftArm
              {
                OFFSET 16.3182 6.07031e-005 0
                CHANNELS 3 Zrotation Xrotation Yrotation
                JOINT LeftForeArm
                {
                  OFFSET 27.0901 0 0
                  CHANNELS 3 Zrotation Xrotation Yrotation
                  JOINT LeftHand
                  {
                    OFFSET 24.5451 1.51738e-005 0
                    CHANNELS 3 Zrotation Xrotation Yrotation
                    End Site
                    {
                      OFFSET 0 0 0
                    }
                  }
                }
              }
            }
            JOINT Neck
            {
              OFFSET 5.0226 -0.0266342 0
              CHANNELS 3 Zrotation Xrotation Yrotation
              JOINT Head
              {
                OFFSET 6.69364 2.86102e-005 0
                CHANNELS 3 Zrotation Xrotation Yrotation
                End Site
                {
                  OFFSET 0 0 0
                }
              }
            }
          }
        }
      }
    }
  }
}
MOTION
Frames:	9
Frame Time:	0.0416667
-92.8364 85.4266 -88.7581 20.2045 -54.0091 24.4377 -152.021 46.2498 71.9454 -57.0658 -2.91197 -12.9387 106.058 24.9024 -13.8692 29.4814 0.666115 -0.680483 -174.941 41.7344 67.5162 -58.0979 -2.29041 -8.27825 65.4816 -2.89464 -4.87584 13.935 4.6716 4.17832 -0.0117749 11.6077 -91.9873 3.62921 -0.818686 -3.88724 -8.04719 -0.988853 -3.84754 -30.5358 0.386454 -3.95358 -10.5231 0.386459 -3.95358 86.3204 -27.9906 -114.958 10.277 20.126 -0.668814 -4.36973 -25.4824 -5.01792 -26.8934 5.36207 -27.9301 -90.7835 -42.0968 75.5859 -29.8572 9.2559 -48.5162 44.5919 41.3548 -56.5794 12.7933 -6.89403 -52.6274 20.199 0.38979 -7.50185 5.30742 3.36512 10.9592 
-88.7771 84.1411 -84.0322 32.458 -55.386 35.8452 -157.877 36.9382 74.3196 -55.46 1.75759 -10.8692 108.441 28.8348 -10.9949 30.7244 1.0449 -0.203861 -169.226 40.5221 68.3552 -78.039 -13.1725 -10.0955 66.4731 -4.2417 -7.37879 10.4824 3.79518 8.9848 -0.407326 11.2153 -92.0384 4.39638 -1.64258 -3.98124 -7.2794 -1.81609 -3.90526 -29.7665 -0.371365 -4.29027 -9.75385 -0.371363 -4.29027 86.7262 -31.7284 -112.397 15.6509 17.9319 9.42509 -4.33438 -24.7446 -5.00654 -30.2981 6.94956 -30.9743 -90.5645 -42.9988 76.199 -27.1567 9.53482 -27.0591 54.1364 22.6849 -75.1864 11.0347 -6.46723 -55.1638 15.9453 1.55463 -8.14273 6.04381 4.53444 12.5597 
-84.9742 82.8707 -79.4097 45.1414 -55.9741 47.0784 -162.527 26.833 75.8271 -54.1435 2.43028 -8.72587 110.799 31.2002 -10.8184 33.0278 1.55781 1.16264 -167.663 43.0913 71.0911 -92.6727 -9.57632 -7.768 70.7026 -7.5847 -7.69267 12.9866 1.86284 11.2004 -0.738229 10.8968 -91.8235 5.03153 -2.22637 -3.54078 -6.64207 -2.37996 -3.4395 -29.1432 -1.06031 -4.04538 -9.13054 -1.06031 -4.0454 88.6464 -33.383 -108.075 26.0045 15.98 20.5688 -4.48235 -27.7897 -5.0564 -41.0379 9.63934 -30.9631 -89.2923 -39.8189 77.4817 -23.5243 7.17081 -18.6302 59.5298 10.199 -85.2687 12.8195 -8.14049 -60.0116 13.0733 1.96107 -11.634 5.42156 5.71427 15.4267 
-80.9378 82.1063 -74.7163 52.4212 -54.0541 55.0404 -166.238 19.3488 77.7379 -51.1883 2.66485 -6.86268 111.492 32.5546 -10.5617 36.0006 2.10439 3.39413 -172.567 51.7384 77.6652 -99.8485 1.4304 -4.97133 75.9369 -11.2438 -8.08527 16.699 1.76844 8.40194 -1.32965 10.4899 -91.6591 5.83592 -3.35168 -3.16817 -5.83419 -3.4878 -3.01763 -28.3565 -2.24543 -4.02817 -8.34387 -2.24542 -4.02815 89.7746 -32.0017 -106.445 35.2916 15.8984 30.6973 -4.70785 -32.1813 -5.14543 -46.0933 10.9659 -30.9561 -87.029 -33.8198 79.9645 -20.8252 1.97211 -13.9519 57.0878 0.342677 -89.9686 15.4316 -9.67603 -60.4167 12.376 4.69615 -13.0244 3.30418 8.36459 16.1013 
-76.3497 82.1192 -69.2993 53.7172 -52.5726 60.2653 -168.004 12.9016 82.0342 -45.5827 3.26315 -5.52305 109.47 31.8967 -10.3011 38.3855 3.3912 3.20577 176.852 61.1413 91.7311 -99.2794 1.55524 -3.22733 81.0967 -14.8265 -8.04375 18.2795 1.62302 7.34885 -1.81256 10.06 -91.7665 6.67508 -4.37309 -3.31179 -4.9922 -4.51455 -3.11603 -27.5287 -3.1766 -4.47218 -7.516 -3.17659 -4.47218 92.785 -27.3473 -101.932 39.9444 16.8198 37.9223 -5.04666 -45.2274 -4.90518 -47.6521 12.7832 -33.9459 -84.8611 -25.2441 82.1286 -20.2414 -2.96665 -13.957 58.1937 -1.26351 -93.023 19.8305 -12.5814 -62.8609 12.2858 8.18254 -13.7382 1.65015 11.6775 16.6013 
-70.325 83.0001 -63.3115 53.2459 -52.2306 63.9952 -169.855 4.19867 85.3082 -34.9505 7.01097 -4.17572 97.8004 28.7233 -2.72133 44.4094 6.90838 1.22916 165.231 66.5619 107.052 -90.5714 -1.90873 -0.984407 85.2137 -16.301 -4.72574 20.8925 0.990543 6.43978 -2.61967 9.72381 -92.3651 7.29465 -6.25217 -4.36894 -4.36777 -6.4382 -4.08918 -26.9183 -4.65254 -6.04451 -6.90568 -4.65254 -6.04451 93.9328 -17.1505 -103.411 40.2358 17.5029 47.5225 -19.1185 -65.6129 -19.6326 -56.512 14.6888 -32.5182 -82.7356 -20.049 85.6838 -19.8896 -6.39302 -8.72041 57.7183 -7.08734 -96.0567 16.4899 -11.0349 -64.341 13.0851 13.3949 -9.04831 -1.24516 15.2088 17.3327 
-63.0583 84.6997 -56.8523 51.8758 -53.9926 65.8279 -173.069 -5.24812 85.7172 -20.7178 9.11267 -1.89327 78.5467 17.6053 3.63308 53.6706 12.1645 -4.93514 158.65 67.8321 117.116 -76.9766 -9.10028 2.09732 84.5115 -15.8966 -4.32846 25.4841 -0.857594 6.98126 -2.59588 9.5512 -92.5191 7.62147 -6.27666 -4.65246 -4.04163 -6.47512 -4.37142 -26.5831 -4.59108 -6.32161 -6.57041 -4.59108 -6.32162 93.8361 -18.8833 -102.705 32.1225 17.2185 63.1349 -72.3235 -61.1605 -73.778 -56.5713 16.7997 -36.2084 -82.6453 -14.1008 84.4844 -19.8934 -6.91289 -6.36319 60.2055 -8.5264 -96.5521 16.9217 -11.7914 -66.5415 15.3298 15.1303 -9.93826 -3.60062 16.8881 19.4247 
-54.831 86.6649 -49.6575 48.8419 -56.7938 65.4086 -176.879 -7.05632 84.6406 -18.8997 11.57 0.372555 57.4249 -0.221456 4.89881 48.6211 11.5082 -13.1393 159.98 66.2573 120.2 -64.9056 -7.53989 4.23893 84.2969 -14.395 -0.831417 25.216 -0.768047 6.99458 -2.42943 9.33422 -92.8886 8.03173 -6.11344 -5.36247 -3.63478 -6.3432 -5.08827 -26.1443 -4.22343 -6.94773 -6.13161 -4.22344 -6.94776 93.3137 -20.1279 -103.451 23.3494 18.1791 67.6672 -89.7562 -51.7304 -89.5607 -62.5122 19.2066 -36.6534 -83.1947 -14.9867 83.3062 -19.9637 -5.4828 -2.1489 59.4597 -9.51285 -97.276 17.2648 -11.9589 -66.3686 17.6354 17.3197 -7.90419 -5.71655 18.2173 20.13 
-47.3252 87.0295 -42.4136 46.675 -60.1703 63.3803 -176.214 -6.57663 83.6305 -24.7328 16.5707 -0.963749 49.5674 -7.4734 -0.496428 23.3137 -0.858911 -3.08705 166.108 62.0599 117.846 -58.2072 -8.33753 4.34811 83.826 -14.4208 -0.845449 26.8967 -0.831845 5.2268 -2.19924 9.1328 -92.8828 8.44758 -5.66066 -5.3524 -3.22103 -5.89043 -5.0983 -25.7193 -3.79451 -6.80203 -5.70669 -3.79451 -6.80202 91.364 -23.6301 -106.468 17.8246 19.8337 67.8929 -84.3753 -41.2303 -86.47 -61.8527 19.5838 -37.6606 -83.8257 -20.5312 83.2662 -20.2594 -1.20711 0.854764 60.2898 -9.09552 -96.8045 19.2728 -12.6607 -64.1953 18.6157 19.7565 -4.99495 -5.10892 19.9143 18.4278 
